<?xml version="1.0" encoding="utf-8"?>
<!-- Generator: Adobe Illustrator 21.0.0, SVG Export Plug-In . SVG Version: 6.00 Build 0)  -->
<svg version="1.1" id="图层_1" xmlns="http://www.w3.org/2000/svg" xmlns:xlink="http://www.w3.org/1999/xlink" x="0px" y="0px"
	 viewBox="0 0 587 109" style="enable-background:new 0 0 587 109;" xml:space="preserve">
<style type="text/css">
	.st0{fill-rule:evenodd;clip-rule:evenodd;fill:#003E8D;}
	.st1{fill-rule:evenodd;clip-rule:evenodd;fill:#ECA616;}
	.st2{fill:#231814;}
</style>
<g>
	<path class="st0" d="M32.8,68.8c4.9,6.7,31.3,8.1,58.9,3c27.7-5.1,46.1-14.6,41.2-21.3c-2.9-4-13.2-6.1-26.9-6.1
		c17-0.5,30.1,1.8,33.5,6.5c5.3,7.3-14.6,17.6-44.4,23c-29.8,5.5-58.3,4-63.6-3.3c-1.6-2.1-0.9-4.5,1.5-7
		C31.9,65.4,31.7,67.2,32.8,68.8L32.8,68.8z"/>
	<path class="st0" d="M26.8,85.2c-21.3-8.2-9.3-27.7,7-37.9c-23.6,9.1-33.9,35.1-6.2,46c21.1,8.3,60.7,3.9,98-6.8
		c15.3-4.4,32.3-9.9,46.1-18c23.2-12.3,34.3-24.8,27.8-34.4c-6.4-9.6-28.4-12.4-57.7-9.6c24.5,1,41.3,1.6,46.7,9.6
		c5.2,7.8-2.1,17.1-18.4,27.2C139.3,83.7,62.7,99,26.8,85.2L26.8,85.2z"/>
	<path class="st1" d="M81.1,23.4c6.6-6.1,15.6-12.6,25-12.6c15.1,0,26.2,8.5,29.3,22.8c1.5-0.5,3-0.8,4.7-0.8
		c7.7,0,13.9,6.2,13.9,13.9c0,2.1-0.5,4.1-1.3,5.8c5.3,2.4,9.4,6.9,11.3,12.5c0.7,2.1,1.1,4.7,1.1,7c-0.1,8.8-5.7,16.3-13.5,19.3
		c15.2-1,23.6-16.4,18.6-29.8c-2.1-5.2-6.2-9.4-11.2-11.6c0.9-1.8,1.3-3.9,1.3-6c0-8-6.4-14.4-14.4-14.4c-1.7,0-3.3,0.3-4.9,0.9
		c-3.1-14.8-14.7-23.6-30.4-23.6c-5.5,0-15.9,0.3-27.1,12.7c-12.9-3.4-25.5,1-31.8,12.1C58.6,22.6,70.3,20.2,81.1,23.4L81.1,23.4z"
		/>
</g>
<path class="st2" d="M222.8,39.9v-4.5h8.6c0.1-0.7,0.3-1.4,0.6-2.1h7.4c-0.1,0.3-0.2,0.8-0.3,1.4c-0.2,0.3-0.3,0.6-0.3,0.8h18.3v4.5
	h-20.4c-1.3,2.5-3.3,5.1-5.9,7.7h6.2v-5.3h7.1v5.3h11.9v4.5h-11.9v9.7c0.1,4-1.8,6-5.7,5.9h-5.2v-4.1h2c1.3,0.1,1.9-0.5,1.8-1.7
	v-9.8h-12.6v-4.5c2.2-2.6,3.9-5.2,5.1-7.7H222.8z M229,54.3h6.5c-1.2,6.4-5.4,10.4-12.6,12.1v-3.8C225.8,60.8,227.8,58,229,54.3
	L229,54.3z M251.6,54.3c1,3.7,2.9,6.4,5.6,8.3v3.8c-6.8-1.6-10.7-5.6-12-12.1H251.6z M288,64.1c1.1,0,1.7-0.4,1.7-1.4v-6h-2.3
	c0.2,5.2-1.9,9.1-6.5,11.5V64c0.9-1.7,1.4-4.3,1.4-7.9V34.3h12.6v28.8c0.1,3-1.5,4.5-4.7,4.4h-3v-3.3H288z M269.1,41.9v-4.1h3.3
	v-4.5h5.7v4.5h3.2v4.1h-3.2v6.8h2.9v12.7c0,3.2-1.5,4.8-4.4,4.7h-7.3V48.7h3v-6.8H269.1z M266.4,67.3h-6.1c1.9-5,3-10,3.3-15.3h5.1
	C268.5,57.5,267.7,62.6,266.4,67.3L266.4,67.3z M266.5,42.9c0.8,1.7,1.5,4.2,2.1,7.3h-5.5c-0.5-2.8-1.2-5.3-1.9-7.3H266.5z
	 M266,33.9c1,2.1,1.7,4.6,2.1,7.4h-5.4c-0.2-1.8-0.9-4.3-2-7.4H266z M276.2,52.6h-2v9.8h0.4c1.1,0.1,1.6-0.4,1.5-1.5V52.6z
	 M289.6,38.1h-2.3v5.4h2.3V38.1z M287.4,47.6v5h2.3v-5H287.4z M300,44.8v-4.7h12.9v-6.8h7.6v6.8h12.9v4.7h-12.9
	c1.3,9.3,5.8,15.7,13.6,19.1v4.1c-8.8-2.7-14.5-7-17.3-12.7c-3.2,6-9.1,10.3-17.5,12.7v-4.1c8-3.5,12.5-9.9,13.5-19.1H300z
	 M372.7,37.2v4.2h-1.7c-0.1,7.9-1.4,13.7-3.9,17.4c1.1,1.5,2.8,3.2,5.1,5v4.4c-3.7-2.2-6.4-4.1-8.2-5.8c-2.1,1.8-4.8,3.7-7.9,5.6
	v-4.2c2-1.8,3.6-3.5,4.8-5.1c-1.9-3.1-3.2-7.3-3.9-12.4c-0.3,0-0.6,0.1-0.9,0.3v-2.3h-2.1c0.5,1.3,1.4,2.5,2.6,3.5v3.3
	c-3.4-1.2-5.7-3.2-6.6-6.1v5h-5.3v-5c-1.1,2.7-3.3,4.8-6.7,6.1v-3.3c1.2-1,2.1-2.2,2.6-3.5h-2.6v-4.2h6.7v-6.8h5.3v6.8h6.4v2.4
	c1.8-1.7,2.9-4.8,3.2-9.2h5.7c-0.2,1.4-0.4,2.7-0.8,3.9H372.7z M337.6,56.9v-4.2h2v-2h5.1v2h5.3v-2h5.1v2h1.8v4.2h-2
	c-0.2,2.7-1.2,4.9-3,6.5c0.2,0,0.4,0.1,0.8,0.3c1.2,0.3,2.2,0.5,2.9,0.6v3.8c-3.4-0.6-6.2-1.4-8.3-2.3c-2.6,0.9-6,1.7-10,2.3v-3.8
	c2.1-0.2,3.8-0.6,5.1-1c-1.5-1.7-2.4-3.8-2.7-6.4H337.6z M362.4,44c0.3,3.5,0.9,6.5,1.7,8.9c0.9-2.8,1.5-6.7,1.7-11.5h-2.7
	c-0.6,1-1.4,1.9-2.3,2.6H362.4z M356.5,34c-0.1,1.9-0.5,3.7-1.2,5.3h-4.4c0.4-1.2,0.8-2.9,1.1-5c-0.1,0.2-0.1,0.1,0-0.3H356.5z
	 M338.2,34h4.6c0.1,1.9,0.5,3.7,1.2,5.3h-4.4C338.8,37.5,338.3,35.7,338.2,34L338.2,34z M347.2,61.1c1.5-1,2.4-2.4,2.6-4.2h-4.8
	C345.2,58.8,346,60.2,347.2,61.1L347.2,61.1z M392.7,67.2V54.7h5.6v-3h-5.6v1c0.3,7-2.3,12.1-7.9,15.3V64c1.6-2.5,2.4-5.9,2.3-10.1
	V34.5h23.3v5.8c0.2,3.4-1.3,5-4.5,4.8h-2v2.7h7.1v4h-7.1v3h5.9v7.6c0.2,3.4-1.5,5.1-5,4.9H392.7z M378.6,33.3h5.7v4.4h2v4.1h-2v6.8
	c0.6-0.1,1.2-0.3,2-0.6V52c-0.1,0.1-0.3,0.2-0.6,0.3c-0.3,0.1-0.8,0.2-1.4,0.4v10c0,3.3-1.6,4.9-4.8,4.9h-3v-3.8h0.8
	c1,0.1,1.5-0.5,1.4-1.7v-7.7c-0.8,0.1-1.7,0.2-2.6,0.4v-5c0.9,0,1.8-0.1,2.6-0.3v-7.9h-2.3v-4.1h2.3V33.3z M392.7,38.5v2.6h11.2
	c0.9,0,1.4-0.5,1.4-1.4v-1.2H392.7z M397.8,58.5v5h5.1c1.1,0.1,1.6-0.4,1.5-1.7v-3.3H397.8z M392.7,45v2.7h5.6V45H392.7z
	 M427.2,49.6c1.5,2.8,3,4.9,4.5,6.2c1.7-1.7,3.3-3.8,4.6-6.2h7.4c-1.9,4.2-4.2,7.6-7,10.1c3.2,1.7,7.3,3.1,12.3,4.2v4.1
	c-7.2-1.2-12.9-2.8-17.3-4.8c-4.3,2-10.1,3.6-17.2,4.8V64c4.9-1.1,9-2.5,12.3-4.2c-2.7-2.5-5-5.9-7-10.1H427.2z M414.7,39.9v-4.4
	h13.2v-2.3h7.7v2.3h13.3v4.4H414.7z M414.4,45.8c4-0.5,6.8-2.1,8.5-4.7h7.4c-2.5,5.5-7.8,8.3-15.9,8.3V45.8z M449.2,45.8v3.6
	c-8.1,0-13.4-2.8-15.9-8.3h7.4C442.3,43.7,445.2,45.3,449.2,45.8L449.2,45.8z M456.1,49.5v-15h28.6v9.7c0.2,3.7-1.6,5.5-5.4,5.3
	h-12.6c-0.1,0.1-0.2,0.3-0.3,0.6c0,0.2-0.1,0.5-0.5,0.9h20.6v11.5c0.1,3.3-1.8,4.9-5.6,4.8H476v-3.9h2c1.3,0.1,1.9-0.5,1.8-1.8v-6.4
	h-1.2c-1.2,6-5.6,10.4-13.3,13v-4c4-2.3,6.4-5.3,7.1-9.1H470c-2.1,6-7.5,10.3-16,12.7V64c4.8-2.2,8-5.1,9.5-8.8h-1.2
	c-2.4,1.8-5.4,3-9.1,3.6v-3.8c3.2-1.2,5.4-3.1,6.6-5.6H456.1z M476.5,45.7c1.3,0.1,1.9-0.4,1.8-1.7v-0.3h-15.9v2H476.5z M478.3,38.4
	h-15.9v1.8h15.9V38.4z M492.5,58.7V38.5H505v-5.6h7v5.6h12.5v13c0.2,5-1.9,7.4-6.2,7.1H512v9.5h-7v-9.5H492.5z M498.8,42.9v11.4h6.2
	V42.9H498.8z M518.2,42.9H512v11.4h4.1c1.5,0,2.2-0.8,2.1-2.6V42.9z M531.8,40.5h5.3c-0.1,7.9-0.7,15.3-1.8,22.1h-6.4
	C530.6,54.7,531.6,47.3,531.8,40.5L531.8,40.5z M552,33.3c1.5,4.7,2.6,10.6,3.2,17.6h-6.5c-0.3-6-1-11.8-2-17.6H552z M561.3,40.5
	c2,7.3,3.3,14.5,3.8,21.6h-6.4c-0.5-7.6-1.4-14.8-2.7-21.6H561.3z M538.4,35.7h6.9v24.8c-0.1,1.6,0.7,2.4,2.3,2.3h3
	c1.3,0,2-0.6,2-1.9v-2h5.3v2.9c0.1,3.5-1.7,5.3-5.3,5.1h-8.3c-4,0.1-6-1.7-5.9-5.5V35.7z"/>
<path class="st2" d="M222.8,89.7V74.9h9.9v2.5H226v3.4h6.2v2.5H226v3.9h7v2.5H222.8z M240.7,84.9c-2.2-0.2-3.3,0.4-3.3,1.6
	c0.1,0.9,0.6,1.4,1.5,1.5C240.2,87.9,240.7,86.9,240.7,84.9L240.7,84.9z M237.9,82.3h-3c0.1-1.2,0.5-2,1.4-2.6
	c0.7-0.4,1.7-0.6,3.1-0.6c2.9,0,4.3,1.3,4.3,3.8v5.6c0,0.1,0,0.2,0.1,0.3c0,0.2,0.1,0.5,0.1,0.8h-2.7c-0.1-0.5-0.1-0.9-0.1-1.4
	c-0.6,1.1-1.7,1.6-3.2,1.5c-2.2-0.1-3.3-1.1-3.3-2.9c0.1-1.5,0.9-2.7,2.2-3.3c1-0.4,2.3-0.5,4-0.5v-1c-0.1-0.8-0.6-1.2-1.4-1.3
	C238.4,80.9,238,81.4,237.9,82.3L237.9,82.3z M253.8,82.2H251c-0.1-0.6-0.5-1-1.4-1c-0.8,0-1.2,0.3-1.2,1c0,0.4,0.7,0.8,2,1.1
	c2.5,0.7,3.8,1.8,3.8,3.4c-0.1,1.9-1.7,3-4.6,3.2c-2.9,0-4.5-1.1-4.6-3.1h2.9c0.1,0.8,0.6,1.2,1.7,1.2c0.9,0,1.4-0.4,1.4-1.1
	c-0.1-0.6-0.8-1-2.1-1.3c-2.6-0.5-3.9-1.6-3.8-3.4c0.1-1.8,1.6-2.8,4.4-3.1C252.3,79.1,253.7,80.1,253.8,82.2L253.8,82.2z
	 M254.3,79.4h2.1v-2l3.1-1.1v3.1h2.3v2.1h-2.3v4.8c-0.1,1.3,0.3,1.8,1.2,1.7c0.4,0,0.7,0,1-0.1v1.9c-0.9,0-1.7,0.1-2.5,0.1
	c-2,0.1-3-1-2.9-3.4v-5h-2.1V79.4z M277.3,89.7h-9.5V74.9h3.1v12.4h6.4V89.7z M284.2,84.9c-2.2-0.2-3.3,0.4-3.3,1.6
	c0,0.9,0.6,1.4,1.5,1.5C283.7,87.9,284.3,86.9,284.2,84.9L284.2,84.9z M281.4,82.3h-2.9c0-1.2,0.5-2,1.4-2.6c0.7-0.4,1.7-0.6,3-0.6
	c2.9,0,4.3,1.3,4.3,3.8v5.6c0,0.1,0,0.2,0.1,0.3c0.1,0.2,0.1,0.5,0.1,0.8h-2.7c-0.1-0.5-0.2-0.9-0.2-1.4c-0.6,1.1-1.7,1.6-3.2,1.5
	c-2.2-0.1-3.3-1.1-3.4-2.9c0.1-1.5,0.9-2.7,2.3-3.3c1-0.4,2.3-0.5,4-0.5v-1c-0.1-0.8-0.6-1.2-1.4-1.3
	C282,80.9,281.5,81.4,281.4,82.3L281.4,82.3z M292.6,74.9v8.7v0.1l3-4.3h3.4l-3.6,4.5l3.8,5.9h-3.6l-3.1-5.6v5.6h-3.2V74.9H292.6z
	 M309.8,85.4H303c-0.1,1.8,0.5,2.6,1.8,2.6c1,0,1.7-0.4,1.9-1.3h2.8c-0.3,2.1-1.8,3.2-4.7,3.2c-3.3,0.1-5-1.7-4.9-5.3
	c0.1-3.5,1.8-5.3,4.9-5.5c2.1,0,3.6,0.8,4.4,2.4c0.3,0.6,0.5,1.2,0.6,1.9C309.8,84,309.8,84.7,309.8,85.4L309.8,85.4z M303,83.3h3.6
	c0-1.4-0.6-2.2-1.8-2.2C303.6,81.1,303.1,81.8,303,83.3L303,83.3z M314.7,77.3v-2.5h12v2.5h-4.4v12.4h-3.2V77.3H314.7z M327.6,79.4
	h2.8v1.9h0.1c0.6-1.5,1.8-2.1,3.6-2V82h-1.4c-0.8,0.1-1.3,0.4-1.5,0.7c-0.1,0.4-0.3,0.9-0.4,1.5c0,0.2,0,0.3,0,0.3v5.1h-3.1v-8.3
	c0-0.1,0-0.4,0-0.7C327.6,80.1,327.6,79.7,327.6,79.4L327.6,79.4z M341,84.9c-2.2-0.2-3.3,0.4-3.3,1.6c0.1,0.9,0.6,1.4,1.5,1.5
	C340.4,87.9,341,86.9,341,84.9L341,84.9z M338.2,82.3h-3c0.1-1.2,0.5-2,1.4-2.6c0.7-0.4,1.7-0.6,3-0.6c2.9,0,4.3,1.3,4.3,3.8v5.6
	c0,0.1,0,0.2,0.1,0.3c0,0.2,0.1,0.5,0.1,0.8h-2.7c-0.1-0.5-0.1-0.9-0.1-1.4c-0.6,1.1-1.7,1.6-3.2,1.5c-2.2-0.1-3.3-1.1-3.4-2.9
	c0.1-1.5,0.9-2.7,2.2-3.3c1-0.4,2.3-0.5,4-0.5v-1c-0.1-0.8-0.6-1.2-1.4-1.3C338.7,80.9,338.3,81.4,338.2,82.3L338.2,82.3z
	 M348.8,84.6c-0.1,2.2,0.7,3.4,2.2,3.4c1.3-0.1,2-1.3,2.2-3.4c-0.1-2.2-0.8-3.3-2.2-3.4C349.5,81.1,348.7,82.3,348.8,84.6
	L348.8,84.6z M353.2,80.6v-5.7h3.1v12.7c0,0.7,0,1.4,0.1,2.1h-3.1c0-0.2,0-0.4,0-0.7c0-0.3-0.1-0.6-0.1-0.7c-0.6,1-1.6,1.6-3.1,1.6
	c-2.8-0.1-4.3-1.9-4.5-5.3c0.2-3.5,1.8-5.3,4.8-5.5C351.6,79.2,352.5,79.6,353.2,80.6L353.2,80.6z M358.1,79.4h3.1v10.3h-3.1V79.4z
	 M358,74.9h3.3v2.7H358V74.9z M366.4,79.4v1.2l0.1,0.1c0.6-1,1.6-1.5,3.1-1.5c1.9,0.2,3,1,3.4,2.3c0.1,0.6,0.2,1.2,0.2,1.6v6.8h-3.1
	v-6.2c0-1.6-0.6-2.4-1.8-2.4c-1.1,0.1-1.7,0.9-1.8,2.4v6.2h-3V79.4H366.4z M378.2,84.4c0,2,0.6,3,2,3c1.3,0,2-1,2-3
	c0-2.2-0.6-3.3-2-3.3C378.9,81.1,378.2,82.2,378.2,84.4L378.2,84.4z M385.3,79.4v9.4c0.1,3.3-1.6,4.9-5,4.9c-3.2,0-4.8-1.1-4.8-3.4
	h2.9c0.1,0.9,0.7,1.3,1.8,1.3c1.7,0,2.4-1.1,2.1-3.4c-0.6,0.9-1.5,1.4-2.9,1.4c-2.6-0.1-4-1.9-4.2-5.1c0.2-3.3,1.7-5,4.3-5.2
	c1.4,0,2.3,0.5,2.8,1.5v-1.2H385.3z M403.7,79.7h-3.4c-0.1-1.8-1.1-2.7-2.9-2.8c-1.8,0.1-2.7,1.9-2.8,5.5c0.1,3.4,1,5.2,2.8,5.4
	c1.9-0.1,2.8-1,2.9-2.8h3.4c-0.2,3.3-2.3,4.9-6.2,5c-4-0.1-6.1-2.6-6.2-7.5c0.2-5,2.2-7.6,6.2-7.8C401.4,74.6,403.5,76.3,403.7,79.7
	L403.7,79.7z M414.5,85.4h-6.8c-0.1,1.8,0.5,2.6,1.8,2.6c1,0,1.7-0.4,1.9-1.3h2.8c-0.3,2.1-1.8,3.2-4.7,3.2c-3.3,0.1-5-1.7-4.9-5.3
	c0.1-3.5,1.8-5.3,4.9-5.5c2.1,0,3.6,0.8,4.4,2.4c0.3,0.6,0.5,1.2,0.6,1.9C414.5,84,414.5,84.7,414.5,85.4L414.5,85.4z M407.7,83.3
	h3.6c0-1.4-0.6-2.2-1.8-2.2C408.4,81.1,407.8,81.8,407.7,83.3L407.7,83.3z M419,79.4v1.2l0.1,0.1c0.6-1,1.7-1.5,3.1-1.5
	c1.9,0.2,3,1,3.4,2.3c0.1,0.6,0.3,1.2,0.3,1.6v6.8h-3.1v-6.2c0-1.6-0.6-2.4-1.9-2.4c-1,0.1-1.7,0.9-1.8,2.4v6.2H416V79.4H419z
	 M426.6,79.4h2.1v-2l3.1-1.1v3.1h2.3v2.1h-2.3v4.8c-0.1,1.3,0.3,1.8,1.2,1.7c0.4,0,0.7,0,1-0.1v1.9c-0.9,0-1.7,0.1-2.5,0.1
	c-2,0.1-3-1-2.9-3.4v-5h-2.1V79.4z M444.9,85.4h-6.8c0,1.8,0.5,2.6,1.8,2.6c1,0,1.7-0.4,1.9-1.3h2.8c-0.3,2.1-1.8,3.2-4.7,3.2
	c-3.3,0.1-4.9-1.7-4.9-5.3c0.2-3.5,1.8-5.3,4.9-5.5c2.2,0,3.6,0.8,4.4,2.4c0.3,0.6,0.5,1.2,0.6,1.9C444.9,84,444.9,84.7,444.9,85.4
	L444.9,85.4z M438.1,83.3h3.6c0-1.4-0.6-2.2-1.9-2.2C438.7,81.1,438.1,81.8,438.1,83.3L438.1,83.3z M446.1,79.4h2.8v1.9h0.1
	c0.6-1.5,1.8-2.1,3.5-2V82h-1.4c-0.8,0.1-1.3,0.4-1.5,0.7c-0.2,0.4-0.3,0.9-0.4,1.5c0,0.2,0,0.3,0,0.3v5.1h-3.1v-8.3
	c0-0.1,0-0.4,0-0.7C446.1,80.1,446.1,79.7,446.1,79.4L446.1,79.4z M463.7,74.7v1.9c-1.7-0.4-2.4,0.5-2.1,2.7h1.8v2.1h-1.8v8.3h-3.1
	v-8.3H457v-2.1h1.5c-0.3-3.4,0.9-5,3.5-4.8C462.6,74.5,463.2,74.6,463.7,74.7L463.7,74.7z M474.9,84.6c-0.1,3.4-1.9,5.2-5.3,5.3
	c-3.4-0.1-5.2-1.9-5.3-5.3c0.1-3.5,1.9-5.3,5.3-5.5C473,79.3,474.8,81.1,474.9,84.6L474.9,84.6z M467.4,84.6c0,2.2,0.7,3.4,2.2,3.4
	c1.5,0,2.2-1.1,2.2-3.4c0.1-2.3-0.7-3.4-2.2-3.4C468.1,81.1,467.4,82.3,467.4,84.6L467.4,84.6z M476.4,79.4h2.8v1.9h0.1
	c0.6-1.5,1.8-2.1,3.5-2V82h-1.3c-0.8,0.1-1.3,0.4-1.5,0.7c-0.1,0.4-0.3,0.9-0.4,1.5c0,0.2,0,0.3,0,0.3v5.1h-3.1v-8.3
	c0-0.1,0-0.4,0-0.7C476.5,80.1,476.4,79.7,476.4,79.4L476.4,79.4z M491.9,87.2h2.5c1.8,0.1,2.6-0.5,2.6-1.9c0-1.4-0.8-2.1-2.6-2
	h-2.5V87.2z M491.9,80.8h2.5c1.4,0,2.1-0.5,2.1-1.7c0-1.2-0.7-1.8-2.1-1.8h-2.5V80.8z M494.3,89.7h-5.6V74.9h5.6
	c3.4,0,5.2,1.3,5.3,3.8c0,1.5-0.9,2.6-2.6,3.2V82c2.1,0.5,3.2,1.8,3.3,3.8C500.1,88.3,498.1,89.5,494.3,89.7L494.3,89.7z
	 M501.7,79.4h3.1v10.3h-3.1V79.4z M501.7,74.9h3.3v2.7h-3.3V74.9z M509.8,84.4c0,2,0.7,3,2,3c1.3,0,2-1,2-3c0-2.2-0.7-3.3-2-3.3
	C510.5,81.1,509.8,82.2,509.8,84.4L509.8,84.4z M517,79.4v9.4c0.1,3.3-1.6,4.9-5.1,4.9c-3.2,0-4.7-1.1-4.8-3.4h2.9
	c0.1,0.9,0.7,1.3,1.8,1.3c1.7,0,2.4-1.1,2.1-3.4c-0.6,0.9-1.5,1.4-2.9,1.4c-2.6-0.1-4-1.9-4.2-5.1c0.2-3.3,1.7-5,4.3-5.2
	c1.4,0,2.3,0.5,2.8,1.5v-1.2H517z M526.7,77.3v9.9h1.6c2.9,0.1,4.4-1.5,4.3-4.9c0-3.4-1.4-5.1-4.3-5H526.7z M523.6,89.7V74.9h5.1
	c4.9,0.1,7.4,2.5,7.4,7.5c0,4.8-2.5,7.3-7.4,7.4H523.6z M543.5,84.9c-2.2-0.2-3.3,0.4-3.3,1.6c0,0.9,0.5,1.4,1.5,1.5
	C543,87.9,543.6,86.9,543.5,84.9L543.5,84.9z M540.7,82.3h-2.9c0-1.2,0.5-2,1.4-2.6c0.7-0.4,1.7-0.6,3-0.6c2.9,0,4.3,1.3,4.3,3.8
	v5.6c0,0.1,0,0.2,0.1,0.3c0,0.2,0.1,0.5,0.1,0.8H544c-0.1-0.5-0.1-0.9-0.1-1.4c-0.6,1.1-1.7,1.6-3.2,1.5c-2.2-0.1-3.3-1.1-3.4-2.9
	c0.1-1.5,0.9-2.7,2.3-3.3c0.9-0.4,2.3-0.5,4-0.5v-1c-0.1-0.8-0.6-1.2-1.4-1.3C541.3,80.9,540.8,81.4,540.7,82.3L540.7,82.3z
	 M547.4,79.4h2.1v-2l3.1-1.1v3.1h2.3v2.1h-2.3v4.8c-0.1,1.3,0.3,1.8,1.2,1.7c0.4,0,0.7,0,1-0.1v1.9c-0.9,0-1.7,0.1-2.5,0.1
	c-2,0.1-3-1-2.9-3.4v-5h-2.1V79.4z M561.9,84.9c-2.2-0.2-3.3,0.4-3.3,1.6c0,0.9,0.5,1.4,1.5,1.5C561.3,87.9,561.9,86.9,561.9,84.9
	L561.9,84.9z M559.1,82.3h-2.9c0-1.2,0.5-2,1.4-2.6c0.7-0.4,1.7-0.6,3.1-0.6c2.9,0,4.3,1.3,4.3,3.8v5.6c0,0.1,0,0.2,0.1,0.3
	c0.1,0.2,0.1,0.5,0.1,0.8h-2.7c-0.1-0.5-0.2-0.9-0.2-1.4c-0.6,1.1-1.7,1.6-3.2,1.5c-2.2-0.1-3.3-1.1-3.4-2.9
	c0.1-1.5,0.9-2.7,2.3-3.3c0.9-0.4,2.3-0.5,4-0.5v-1c-0.1-0.8-0.6-1.2-1.4-1.3C559.6,80.9,559.2,81.4,559.1,82.3L559.1,82.3z"/>
</svg>
