<?xml version="1.0" encoding="utf-8"?>
<!-- Generator: Adobe Illustrator 21.0.0, SVG Export Plug-In . SVG Version: 6.00 Build 0)  -->
<svg version="1.1" id="icon" xmlns="http://www.w3.org/2000/svg" xmlns:xlink="http://www.w3.org/1999/xlink" x="0px" y="0px"
	 viewBox="0 0 22 22" style="enable-background:new 0 0 22 22;" xml:space="preserve">
<style type="text/css">
	.st0{fill-rule:evenodd;clip-rule:evenodd;fill:#666666;}
</style>
<g>
	<path class="st0" d="M8,3h6c0.5,0,1-0.5,1-1V1c0-0.5-0.5-1-1-1H8C7.5,0,7,0.5,7,1v1C7,2.5,7.5,3,8,3z"/>
	<path class="st0" d="M18,2h-1.7C16.1,2,16,2.1,16,2.3c0,1-0.8,1.7-1.7,1.7H7.7C6.8,4,6,3.2,6,2.3C6,2.1,5.9,2,5.7,2H4
		C2.9,2,2,2.9,2,4v15c0,1.1,0.9,2,2,2h14c1.1,0,2-0.9,2-2V4C20,2.9,19.1,2,18,2z M11,17c-1.3-2.2-3.1-3.8-5-5c0.4-0.3,0.7-0.6,1-1
		c1.3,0.5,2.5,1.1,3.5,2.2c1.5-2,3.6-3.8,6.5-5.2v1C14.5,10.9,12.2,13.9,11,17z"/>
</g>
</svg>
