<?xml version="1.0" encoding="utf-8"?>
<!-- Generator: Adobe Illustrator 21.0.0, SVG Export Plug-In . SVG Version: 6.00 Build 0)  -->
<svg version="1.1" id="icon" xmlns="http://www.w3.org/2000/svg" xmlns:xlink="http://www.w3.org/1999/xlink" x="0px" y="0px"
	 viewBox="0 0 22 22" style="enable-background:new 0 0 22 22;" xml:space="preserve">
<style type="text/css">
	.st0{fill-rule:evenodd;clip-rule:evenodd;fill:#15AAFB;}
</style>
<g>
	<path class="st0" d="M11,0c2.8,0,5.7,2.4,5.7,4.2V8c0,1.6-0.8,4.5-2.5,5.8c-0.3,0.2-0.4,0.6-0.4,1c0,0.4,0.3,0.7,0.6,0.9l6.7,3.1
		c0.3,0.1,0.7,0.4,0.9,0.6V21c0,0.5-0.4,1-1,1H1c-0.5,0-1-0.4-1-1v-1.6c0.1-0.2,0.5-0.4,0.9-0.6l6.6-3.1c0.3-0.2,0.6-0.5,0.6-0.9
		c0-0.4-0.1-0.7-0.4-1C6,12.4,5.3,9.6,5.3,8V4.2C5.3,2.4,8.2,0,11,0L11,0L11,0z"/>
</g>
</svg>
